Input #0, mov,mp4,m4a,3gp,3g2,mj2, from '/var/www/html/project/media/video/original/1000205624.mp4':
  Metadata:
    major_brand     : mp42
    minor_version   : 0
    compatible_brands: isommp42
    creation_time   : 2025-01-11T21:50:26.000000Z
    com.android.version: 14
  Duration: 00:00:25.51, start: 0.000000, bitrate: 9988 kb/s
    Stream #0:0(eng): Video: hevc (Main), 1 reference frame (hvc1 / 0x31637668), yuv420p(tv, bt709), 1920x1080 (1920x1088), 9861 kb/s, 30 fps, 30 tbr, 90k tbn, 90k tbc (default)
    Metadata:
      creation_time   : 2025-01-11T21:50:26.000000Z
      handler_name    : VideoHandle
    Stream #0:1(eng): Audio: aac (LC) (mp4a / 0x6134706D), 48000 Hz, stereo, fltp, 128 kb/s (default)
    Metadata:
      creation_time   : 2025-01-11T21:50:26.000000Z
      handler_name    : SoundHandle
Input #1, png_pipe, from '/var/www/html/project/static/images/templates/logo.png':
  Duration: N/A, bitrate: N/A
    Stream #1:0: Video: png, 1 reference frame, rgba(pc), 1920x1080 [SAR 2835:2835 DAR 16:9], 25 tbr, 25 tbn, 25 tbc
[h264 @ 0x55d641143bc0] Reinit context to 1280x720, pix_fmt: yuv420p
Input #2, mov,mp4,m4a,3gp,3g2,mj2, from '/var/www/html/project/static/images/templates/Codino.mp4':
  Metadata:
    major_brand     : mp42
    minor_version   : 1
    compatible_brands: isommp41mp42
    creation_time   : 2021-07-11T07:02:58.000000Z
  Duration: 00:00:02.00, start: 0.000000, bitrate: 1007 kb/s
    Stream #2:0(ita): Audio: aac (LC) (mp4a / 0x6134706D), 44100 Hz, stereo, fltp, 102 kb/s (default)
    Metadata:
      creation_time   : 2021-07-11T07:02:58.000000Z
      handler_name    : Core Media Audio
    Stream #2:1(und): Video: h264 (High), 1 reference frame (avc1 / 0x31637661), yuv420p(tv, bt709, progressive, left), 1280x720 [SAR 1:1 DAR 16:9], 813 kb/s, 25 fps, 25 tbr, 25k tbn, 50k tbc (default)
    Metadata:
      creation_time   : 2021-07-11T07:02:58.000000Z
      handler_name    : Core Media Video
[Parsed_scale_0 @ 0x55d6410fdb40] w:1920 h:1080 flags:'bilinear' interl:0
[Parsed_scale_2 @ 0x55d641113240] w:1920 h:1080 flags:'bilinear' interl:0
[Parsed_scale_4 @ 0x55d6411128c0] w:1920 h:1080 flags:'bilinear' interl:0
Stream mapping:
  Stream #0:0 (hevc) -> scale
  Stream #0:1 (aac) -> concat:in0:a0
  Stream #1:0 (png) -> scale
  Stream #2:0 (aac) -> concat:in1:a0
  Stream #2:1 (h264) -> scale
  concat:out:v0 -> Stream #0:0 (libx264)
  concat:out:a0 -> Stream #0:1 (aac)
Press [q] to stop, [?] for help
[h264 @ 0x55d6414cb8c0] Reinit context to 1280x720, pix_fmt: yuv420p
[Parsed_scale_0 @ 0x55d64372cf80] w:1920 h:1080 flags:'bilinear' interl:0
[Parsed_scale_2 @ 0x55d643735780] w:1920 h:1080 flags:'bilinear' interl:0
[Parsed_scale_4 @ 0x55d643736840] w:1920 h:1080 flags:'bilinear' interl:0
[graph 0 input from stream 0:0 @ 0x55d64373b100] w:1920 h:1080 pixfmt:yuv420p tb:1/90000 fr:30/1 sar:0/1 sws_param:flags=2
[graph 0 input from stream 1:0 @ 0x55d64373c180] w:1920 h:1080 pixfmt:rgba tb:1/25 fr:25/1 sar:2835/2835 sws_param:flags=2
[graph 0 input from stream 2:1 @ 0x55d64373d200] w:1280 h:720 pixfmt:yuv420p tb:1/25000 fr:25/1 sar:1/1 sws_param:flags=2
[graph_0_in_0_1 @ 0x55d64373e1c0] tb:1/48000 samplefmt:fltp samplerate:48000 chlayout:0x3
[graph_0_in_2_0 @ 0x55d64373f300] tb:1/44100 samplefmt:fltp samplerate:44100 chlayout:0x3
[Parsed_concat_7 @ 0x55d643739140] auto-inserting filter 'auto_resampler_0' between the filter 'graph_0_in_2_0' and the filter 'Parsed_concat_7'
[Parsed_scale_0 @ 0x55d64372cf80] w:1920 h:1080 fmt:yuv420p sar:0/1 -> w:1920 h:1080 fmt:yuv420p sar:0/1 flags:0x2
[Parsed_setsar_1 @ 0x55d643734ec0] w:1920 h:1080 sar:0/1 dar:16/9 -> sar:1/1 dar:16/9
[Parsed_scale_2 @ 0x55d643735780] w:1920 h:1080 fmt:rgba sar:2835/2835 -> w:1920 h:1080 fmt:yuva420p sar:1/1 flags:0x2
[Parsed_setsar_3 @ 0x55d643735c40] w:1920 h:1080 sar:1/1 dar:16/9 -> sar:1/1 dar:16/9
[Parsed_overlay_6 @ 0x55d643737f80] main w:1920 h:1080 fmt:yuv420p overlay w:1920 h:1080 fmt:yuva420p
[Parsed_overlay_6 @ 0x55d643737f80] [framesync @ 0x55d6437380e8] Selected 1/90000 time base
[Parsed_overlay_6 @ 0x55d643737f80] [framesync @ 0x55d6437380e8] Sync level 2
[Parsed_scale_4 @ 0x55d643736840] w:1280 h:720 fmt:yuv420p sar:1/1 -> w:1920 h:1080 fmt:yuv420p sar:1/1 flags:0x2
[Parsed_setsar_5 @ 0x55d643737300] w:1920 h:1080 sar:1/1 dar:16/9 -> sar:1/1 dar:16/9
[auto_resampler_0 @ 0x55d6437467c0] ch:2 chl:stereo fmt:fltp r:44100Hz -> ch:2 chl:stereo fmt:fltp r:48000Hz
[libx264 @ 0x55d641129980] using SAR=1/1
[libx264 @ 0x55d641129980] using cpu capabilities: MMX2 SSE2Fast SSSE3 SSE4.2 AVX FMA3 BMI2 AVX2
[libx264 @ 0x55d641129980] profile High, level 4.0
[libx264 @ 0x55d641129980] 264 - core 155 r2917 0a84d98 - H.264/MPEG-4 AVC codec - Copyleft 2003-2018 - http://www.videolan.org/x264.html - options: cabac=1 ref=1 deblock=1:0:0 analyse=0x3:0x113 me=hex subme=2 psy=1 psy_rd=1.00:0.00 mixed_ref=0 me_range=16 chroma_me=1 trellis=0 8x8dct=1 cqm=0 deadzone=21,11 fast_pskip=1 chroma_qp_offset=0 threads=24 lookahead_threads=8 sliced_threads=0 nr=0 decimate=1 interlaced=0 bluray_compat=0 constrained_intra=0 bframes=3 b_pyramid=2 b_adapt=1 b_bias=0 direct=1 weightb=1 open_gop=0 weightp=1 keyint=250 keyint_min=25 scenecut=40 intra_refresh=0 rc_lookahead=10 rc=crf mbtree=1 crf=18.0 qcomp=0.60 qpmin=0 qpmax=69 qpstep=4 ip_ratio=1.40 aq=1:1.00
Output #0, mp4, to '/var/www/html/project/media/video/watermarks/1000205624.mp4':
  Metadata:
    major_brand     : mp42
    minor_version   : 0
    compatible_brands: isommp42
    com.android.version: 14
    encoder         : Lavf58.29.100
    Stream #0:0: Video: h264 (libx264), 1 reference frame (avc1 / 0x31637661), yuv420p, 1920x1080 [SAR 1:1 DAR 16:9], q=-1--1, 30 fps, 15360 tbn, 30 tbc (default)
    Metadata:
      encoder         : Lavc58.54.100 libx264
    Side data:
      cpb: bitrate max/min/avg: 0/0/0 buffer size: 0 vbv_delay: -1
    Stream #0:1: Audio: aac (LC) (mp4a / 0x6134706D), 48000 Hz, stereo, fltp, delay 1024, 128 kb/s (default)
    Metadata:
      encoder         : Lavc58.54.100 aac
[Parsed_overlay_6 @ 0x55d643737f80] [framesync @ 0x55d6437380e8] Sync level 0
[Parsed_concat_7 @ 0x55d643739140] EOF on in0:v0, 1 streams left in segment.
[Parsed_concat_7 @ 0x55d643739140] EOF on in0:a0, 0 streams left in segment.
[Parsed_concat_7 @ 0x55d643739140] Segment finished at pts=25513351
[Parsed_concat_7 @ 0x55d643739140] EOF on in1:v0, 1 streams left in segment.
[Parsed_concat_7 @ 0x55d643739140] EOF on in1:a0, 0 streams left in segment.
[Parsed_concat_7 @ 0x55d643739140] Segment finished at pts=27532038
No more output streams to write to, finishing.
frame=  815 fps= 32 q=-1.0 Lsize=   36928kB time=00:00:27.54 bitrate=10984.1kbits/s speed=1.08x    
[AVIOContext @ 0x55d6410ea440] Statistics: 0 seeks, 48 writeouts
video:36463kB audio:434kB subtitle:0kB other streams:0kB global headers:0kB muxing overhead: 0.083493%
Input file #0 (/var/www/html/project/media/video/original/1000205624.mp4):
  Input stream #0:0 (video): 765 packets read (31434980 bytes); 765 frames decoded; 
  Input stream #0:1 (audio): 1195 packets read (408158 bytes); 1195 frames decoded (1223680 samples); 
  Total: 1960 packets (31843138 bytes) demuxed
Input file #1 (/var/www/html/project/static/images/templates/logo.png):
  Input stream #1:0 (video): 1 packets read (111578 bytes); 1 frames decoded; 
  Total: 1 packets (111578 bytes) demuxed
Input file #2 (/var/www/html/project/static/images/templates/Codino.mp4):
  Input stream #2:0 (audio): 89 packets read (26579 bytes); 87 frames decoded (89024 samples); 
  Input stream #2:1 (video): 50 packets read (203365 bytes); 50 frames decoded; 
  Total: 139 packets (229944 bytes) demuxed
Output file #0 (/var/www/html/project/media/video/watermarks/1000205624.mp4):
  Output stream #0:0 (video): 815 frames encoded; 815 packets muxed (37338575 bytes); 
  Output stream #0:1 (audio): 1291 frames encoded (1321557 samples); 1292 packets muxed (444086 bytes); 
  Total: 2107 packets (37782661 bytes) muxed
[AVIOContext @ 0x55d64110fd80] Statistics: 2 seeks, 148 writeouts
[libx264 @ 0x55d641129980] frame I:7     Avg QP:15.99  size:144106
[libx264 @ 0x55d641129980] frame P:260   Avg QP:18.01  size: 76265
[libx264 @ 0x55d641129980] frame B:548   Avg QP:19.82  size: 30110
[libx264 @ 0x55d641129980] consecutive B-frames:  6.0%  9.3% 11.0% 73.6%
[libx264 @ 0x55d641129980] mb I  I16..4: 17.5% 41.9% 40.6%
[libx264 @ 0x55d641129980] mb P  I16..4: 14.0% 33.4%  7.9%  P16..4: 15.9%  8.6%  5.8%  0.0%  0.0%    skip:14.4%
[libx264 @ 0x55d641129980] mb B  I16..4:  5.0% 10.3%  0.9%  B16..8: 21.9%  7.2%  1.0%  direct:19.2%  skip:34.6%  L0:45.4% L1:36.0% BI:18.6%
[libx264 @ 0x55d641129980] 8x8 transform intra:61.1% inter:51.4%
[libx264 @ 0x55d641129980] coded y,uvDC,uvAC intra: 67.7% 62.2% 16.1% inter: 20.8% 41.0% 0.8%
[libx264 @ 0x55d641129980] i16 v,h,dc,p: 40% 22% 28% 10%
[libx264 @ 0x55d641129980] i8 v,h,dc,ddl,ddr,vr,hd,vl,hu: 19% 26% 25%  4%  5%  4%  6%  4%  7%
[libx264 @ 0x55d641129980] i4 v,h,dc,ddl,ddr,vr,hd,vl,hu: 23% 29% 12%  5%  7%  6%  8%  5%  7%
[libx264 @ 0x55d641129980] i8c dc,h,v,p: 47% 25% 21%  7%
[libx264 @ 0x55d641129980] Weighted P-Frames: Y:14.6% UV:10.8%
[libx264 @ 0x55d641129980] kb/s:10861.93
[aac @ 0x55d6412aac80] Qavg: 1947.903
[AVIOContext @ 0x55d6410f33c0] Statistics: 58998917 bytes read, 1475 seeks
[AVIOContext @ 0x55d6410f0680] Statistics: 111578 bytes read, 0 seeks
[AVIOContext @ 0x55d6410f0dc0] Statistics: 1530915 bytes read, 42 seeks
